:FULLY-SPECIFIED
:FORCE-ALL-JOINTS-BE-3DOF
:DEGREES
102
root 7.20286 16.6946 -26.8549 3.1542 8.55405 -4.62314
lfemur -26.2048 -1.13475 -8.9338
ltibia 39.1284 0 0
lfoot -17.0633 -0.894291 0
ltoes 16.0298 0 0
rfemur -28.2236 -14.6542 18.2502
rtibia 41.7909 0 0
rfoot -17.3979 0.168265 0
rtoes -20.0288 0 0
lowerback 2.15051 2.00977 1.38209
upperback -0.386414 2.57234 1.52742
thorax -1.43255 1.26932 0.981521
lowerneck -10.4052 -3.99684 2.41969
upperneck -2.01399 -5.57168 1.1058
head 1.07587 -2.7689 -0.258057
lclavicle -6.71279e-15 -8.11169e-15 0
lhumerus -44.3559 -8.30603 91.9404
lradius 47.2202 0 0
lwrist 12.5511 0 0
lhand 1.99115 4.84005 0
lfingers 7.12502 0 0
lthumb 27.4924 32.8166 0
rclavicle -6.71279e-15 -8.11169e-15 0
rhumerus -41.0671 -1.56448 -74.2757
rradius 53.6362 0 0
rwrist 0.152282 0 0
rhand -10.2179 -14.3634 0
rfingers 7.12502 0 0
rthumb 15.751 -43.4582 0
103
root 7.23784 16.7056 -26.8391 2.5952 8.61082 -4.40687
lfemur -25.2668 -0.709504 -9.32511
ltibia 38.6549 0 0
lfoot -16.8999 -1.35604 0
ltoes 16.7796 0 0
rfemur -29.9404 -14.7595 18.1201
rtibia 42.0115 0 0
rfoot -16.3957 0.792797 0
rtoes -20.0549 0 0
lowerback 2.70475 1.8413 1.18611
upperback -0.155589 2.33719 1.51671
thorax -1.49668 1.15235 1.09492
lowerneck -10.478 -3.90802 2.35983
upperneck -1.8817 -5.45111 1.10681
head 1.13431 -2.70696 -0.245919
lclavicle -5.98879e-15 -8.15658e-15 0
lhumerus -44.1779 -8.59279 91.9569
lradius 47.3082 0 0
lwrist 12.5336 0 0
lhand 2.21434 4.92368 0
lfingers 7.12502 0 0
lthumb 27.7055 32.8632 0
rclavicle -5.98879e-15 -8.15658e-15 0
rhumerus -41.0729 -1.72317 -73.4492
rradius 54.1181 0 0
rwrist 0.0702246 0 0
rhand -9.49428 -14.4488 0
rfingers 7.12502 0 0
rthumb 16.4457 -43.4639 0
104
root 7.27282 16.7167 -26.8232 2.03621 8.66759 -4.19059
lfemur -24.3289 -0.284261 -9.71642
ltibia 38.1813 0 0
lfoot -16.7366 -1.8178 0
ltoes 17.5295 0 0
rfemur -31.6572 -14.8648 17.9899
rtibia 42.232 0 0
rfoot -15.3935 1.41733 0
rtoes -20.0809 0 0
lowerback 3.25899 1.67283 0.990132
upperback 0.0752352 2.10203 1.506
thorax -1.56082 1.03537 1.20831
lowerneck -10.5509 -3.8192 2.29997
upperneck -1.74942 -5.33054 1.10782
head 1.19274 -2.64502 -0.23378
lclavicle -5.26479e-15 -8.20147e-15 0
lhumerus -44 -8.87956 91.9735
lradius 47.3962 0 0
lwrist 12.5161 0 0
lhand 2.43752 5.0073 0
lfingers 7.12502 0 0
lthumb 27.9186 32.9099 0
rclavicle -5.26479e-15 -8.20147e-15 0
rhumerus -41.0788 -1.88187 -72.6228
rradius 54.5999 0 0
rwrist -0.0118328 0 0
rhand -8.77072 -14.5343 0
rfingers 7.12502 0 0
rthumb 17.1403 -43.4696 0
105
root 7.3078 16.7277 -26.8074 1.47721 8.72436 -3.97432
lfemur -23.391 0.140982 -10.1077
ltibia 37.7078 0 0
lfoot -16.5732 -2.27955 0
ltoes 18.2793 0 0
rfemur -33.374 -14.9701 17.8598
rtibia 42.4526 0 0
rfoot -14.3913 2.04186 0
rtoes -20.107 0 0
lowerback 3.81323 1.50436 0.794155
upperback 0.30606 1.86688 1.49528
thorax -1.62495 0.9184 1.32171
lowerneck -10.6237 -3.73038 2.24011
upperneck -1.61713 -5.20997 1.10883
head 1.25118 -2.58308 -0.221642
lclavicle -4.54079e-15 -8.24635e-15 0
lhumerus -43.822 -9.16632 91.99
lradius 47.4842 0 0
lwrist 12.4986 0 0
lhand 2.6607 5.09092 0
lfingers 7.12502 0 0
lthumb 28.1317 32.9565 0
rclavicle -4.54079e-15 -8.24635e-15 0
rhumerus -41.0846 -2.04056 -71.7963
rradius 55.0818 0 0
rwrist -0.0938903 0 0
rhand -8.04715 -14.6197 0
rfingers 7.12502 0 0
rthumb 17.8349 -43.4753 0
106
root 7.34278 16.7388 -26.7915 0.91822 8.78113 -3.75805
lfemur -22.453 0.566225 -10.499
ltibia 37.2342 0 0
lfoot -16.4098 -2.7413 0
ltoes 19.0291 0 0
rfemur -35.0908 -15.0754 17.7297
rtibia 42.6732 0 0
rfoot -13.3891 2.66639 0
rtoes -20.1331 0 0
lowerback 4.36746 1.33589 0.598179
upperback 0.536884 1.63172 1.48457
thorax -1.68909 0.801426 1.4351
lowerneck -10.6965 -3.64156 2.18025
upperneck -1.48484 -5.08941 1.10984
head 1.30961 -2.52113 -0.209504
lclavicle -3.81679e-15 -8.29124e-15 0
lhumerus -43.6441 -9.45309 92.0065
lradius 47.5722 0 0
lwrist 12.4811 0 0
lhand 2.88389 5.17454 0
lfingers 7.12502 0 0
lthumb 28.3448 33.0032 0
rclavicle -3.81679e-15 -8.29124e-15 0
rhumerus -41.0904 -2.19925 -70.9699
rradius 55.5636 0 0
rwrist -0.175948 0 0
rhand -7.32358 -14.7052 0
rfingers 7.12502 0 0
rthumb 18.5295 -43.481 0
107
root 7.37776 16.7498 -26.7757 0.359225 8.8379 -3.54177
lfemur -21.5151 0.991468 -10.8903
ltibia 36.7607 0 0
lfoot -16.2464 -3.20305 0
ltoes 19.779 0 0
rfemur -36.8076 -15.1807 17.5995
rtibia 42.8938 0 0
rfoot -12.3869 3.29093 0
rtoes -20.1592 0 0
lowerback 4.9217 1.16742 0.402202
upperback 0.767709 1.39656 1.47386
thorax -1.75322 0.684451 1.5485
lowerneck -10.7693 -3.55274 2.1204
upperneck -1.35255 -4.96884 1.11085
head 1.36805 -2.45919 -0.197365
lclavicle -3.09279e-15 -8.33613e-15 0
lhumerus -43.4661 -9.73985 92.0231
lradius 47.6602 0 0
lwrist 12.4636 0 0
lhand 3.10707 5.25817 0
lfingers 7.12502 0 0
lthumb 28.558 33.0498 0
rclavicle -3.09279e-15 -8.33613e-15 0
rhumerus -41.0963 -2.35795 -70.1434
rradius 56.0455 0 0
rwrist -0.258005 0 0
rhand -6.60001 -14.7906 0
rfingers 7.12502 0 0
rthumb 19.2242 -43.4866 0
108
root 7.41274 16.7609 -26.7598 -0.199769 8.89467 -3.3255
lfemur -20.5771 1.41671 -11.2817
ltibia 36.2871 0 0
lfoot -16.083 -3.66481 0
ltoes 20.5288 0 0
rfemur -38.5244 -15.286 17.4694
rtibia 43.1144 0 0
rfoot -11.3847 3.91546 0
rtoes -20.1853 0 0
lowerback 5.47594 0.99895 0.206225
upperback 0.998533 1.16141 1.46314
thorax -1.81736 0.567477 1.6619
lowerneck -10.8422 -3.46392 2.06054
upperneck -1.22026 -4.84827 1.11186
head 1.42649 -2.39725 -0.185227
lclavicle -2.36879e-15 -8.38101e-15 0
lhumerus -43.2882 -10.0266 92.0396
lradius 47.7482 0 0
lwrist 12.4461 0 0
lhand 3.33025 5.34179 0
lfingers 7.12502 0 0
lthumb 28.7711 33.0965 0
rclavicle -2.36879e-15 -8.38101e-15 0
rhumerus -41.1021 -2.51664 -69.317
rradius 56.5273 0 0
rwrist -0.340063 0 0
rhand -5.87644 -14.8761 0
rfingers 7.12502 0 0
rthumb 19.9188 -43.4923 0
109
root 7.44772 16.7719 -26.744 -0.758763 8.95144 -3.10923
lfemur -19.6392 1.84195 -11.673
ltibia 35.8136 0 0
lfoot -15.9196 -4.12656 0
ltoes 21.2786 0 0
rfemur -40.2412 -15.3913 17.3393
rtibia 43.335 0 0
rfoot -10.3825 4.53999 0
rtoes -20.2114 0 0
lowerback 6.03018 0.83048 0.0102484
upperback 1.22936 0.926253 1.45243
thorax -1.88149 0.450502 1.77529
lowerneck -10.915 -3.3751 2.00068
upperneck -1.08797 -4.7277 1.11287
head 1.48492 -2.33531 -0.173088
lclavicle -1.64479e-15 -8.4259e-15 0
lhumerus -43.1102 -10.3134 92.0561
lradius 47.8362 0 0
lwrist 12.4286 0 0
lhand 3.55344 5.42541 0
lfingers 7.12502 0 0
lthumb 28.9842 33.1431 0
rclavicle -1.64479e-15 -8.4259e-15 0
rhumerus -41.1079 -2.67533 -68.4905
rradius 57.0092 0 0
rwrist -0.42212 0 0
rhand -5.15287 -14.9615 0
rfingers 7.12502 0 0
rthumb 20.6134 -43.498 0
